<svg width="60" height="60" viewBox="0 0 60 60" fill="none" xmlns="http://www.w3.org/2000/svg">
<rect x="0.5" y="0.5" width="59" height="59" rx="5.5" fill="#11131D"/>
<path fill-rule="evenodd" clip-rule="evenodd" d="M23.3333 24.6667V27.3333H22C20.5273 27.3333 19.3333 28.5272 19.3333 30V38C19.3333 39.4728 20.5273 40.6667 22 40.6667H38C39.4728 40.6667 40.6667 39.4728 40.6667 38V30C40.6667 28.5272 39.4728 27.3333 38 27.3333H36.6667V24.6667C36.6667 20.9848 33.6819 18 30 18C26.3181 18 23.3333 20.9848 23.3333 24.6667ZM26 24.6667C26 22.4575 27.7909 20.6667 30 20.6667C32.2091 20.6667 34 22.4575 34 24.6667V27.3333H26V24.6667Z" fill="#6C67FD"/>
<rect x="0.5" y="0.5" width="59" height="59" rx="5.5" stroke="#35384F"/>
</svg>
