<svg width="60" height="60" viewBox="0 0 60 60" fill="none" xmlns="http://www.w3.org/2000/svg">
<rect x="0.5" y="0.5" width="59" height="59" rx="5.5" fill="#11131D"/>
<g clip-path="url(#clip0_80_53)">
<path d="M25.7031 27.2135C23.6797 25.1172 20.8411 23.7813 18.4583 26.0833C17.6797 26.8333 17.1224 27.8542 16.8776 28.9479C16.5859 30.2448 16.8047 31.4297 17.3437 32.4062C17.8229 33.276 18.5547 33.987 19.4167 34.4766C20.2812 34.9688 21.2656 35.2344 22.2422 35.2057C23.3151 35.1745 24.388 34.7786 25.2891 33.9271C26.5625 32.7214 27.6745 30.9193 28.7604 29.1615C29.9479 27.2396 31.1042 25.3672 32.5234 24.1016C33.5365 23.1979 34.6198 22.6146 35.7188 22.2943C37.2969 21.8359 38.875 21.9375 40.3099 22.4375C41.7214 22.9271 42.987 23.7969 43.9609 24.8906C44.7891 25.8177 45.4193 26.9219 45.763 28.1016C46.263 29.8203 45.9609 31.8802 45.0495 33.6823C44.4036 34.9557 43.4453 36.125 42.2422 36.9688C41.0052 37.8359 39.5156 38.3594 37.849 38.3099C35.9427 38.2526 33.8385 37.4505 31.6693 35.5495L33.474 33.487C35.1172 34.9271 36.6198 35.5313 37.9245 35.5703C38.9609 35.6016 39.8932 35.2708 40.6745 34.724C41.4896 34.1536 42.1484 33.3438 42.6016 32.4479C43.2161 31.2344 43.4349 29.9089 43.1328 28.8672C42.9089 28.0964 42.4818 27.3594 41.9115 26.7188C41.2344 25.9583 40.3698 25.3594 39.4219 25.0286C38.4974 24.7083 37.4844 24.638 36.4844 24.9297C35.7734 25.1354 35.0521 25.5313 34.3516 26.1563C33.2135 27.1719 32.1667 28.8646 31.0938 30.6042C29.9115 32.5182 28.7005 34.4792 27.1797 35.9167C25.7526 37.2682 24.0365 37.8958 22.3177 37.9479C20.8307 37.9922 19.349 37.599 18.0625 36.8646C16.7708 36.1302 15.6667 35.0521 14.9375 33.7292C14.0937 32.2005 13.7526 30.3542 14.2031 28.3464C14.5651 26.737 15.3958 25.2292 16.5599 24.1068C17.3437 23.3516 18.2786 22.7656 19.3281 22.4349C20.3854 22.1016 21.5469 22.0313 22.776 22.3073C24.3594 22.6641 26.0339 23.599 27.6849 25.3125L25.7031 27.2135Z" fill="#6C67FD"/>
</g>
<rect x="0.5" y="0.5" width="59" height="59" rx="5.5" stroke="#35384F"/>
<defs>
<clipPath id="clip0_80_53">
<rect width="32" height="16.3099" fill="white" transform="translate(14 22)"/>
</clipPath>
</defs>
</svg>
