<svg width="40" height="40" viewBox="0 0 40 40" fill="none" xmlns="http://www.w3.org/2000/svg">
<path d="M28.9 9.09998C28.5044 9.09998 28.1178 9.21728 27.7889 9.43704C27.46 9.6568 27.2036 9.96916 27.0523 10.3346C26.9009 10.7001 26.8613 11.1022 26.9384 11.4902C27.0156 11.8781 27.2061 12.2345 27.4858 12.5142C27.7655 12.7939 28.1219 12.9844 28.5098 13.0616C28.8978 13.1387 29.2999 13.0991 29.6654 12.9477C30.0308 12.7964 30.3432 12.54 30.563 12.2111C30.7827 11.8822 30.9 11.4955 30.9 11.1C30.9 10.5695 30.6893 10.0608 30.3142 9.68577C29.9392 9.31069 29.4304 9.09998 28.9 9.09998ZM36.5667 13.1333C36.5343 11.7505 36.2753 10.3823 35.8 9.08331C35.3762 7.97187 34.7167 6.96544 33.8667 6.13331C33.0414 5.27902 32.0326 4.62361 30.9167 4.21665C29.6211 3.72691 28.2514 3.462 26.8667 3.43331C25.1 3.33331 24.5333 3.33331 20 3.33331C15.4667 3.33331 14.9 3.33331 13.1333 3.43331C11.7486 3.462 10.3789 3.72691 9.08334 4.21665C7.96947 4.62773 6.96157 5.28258 6.13334 6.13331C5.27905 6.95861 4.62364 7.96738 4.21668 9.08331C3.72694 10.3789 3.46203 11.7486 3.43334 13.1333C3.33334 14.9 3.33334 15.4666 3.33334 20C3.33334 24.5333 3.33334 25.1 3.43334 26.8666C3.46203 28.2514 3.72694 29.6211 4.21668 30.9166C4.62364 32.0326 5.27905 33.0414 6.13334 33.8666C6.96157 34.7174 7.96947 35.3722 9.08334 35.7833C10.3789 36.273 11.7486 36.538 13.1333 36.5667C14.9 36.6666 15.4667 36.6666 20 36.6666C24.5333 36.6666 25.1 36.6666 26.8667 36.5667C28.2514 36.538 29.6211 36.273 30.9167 35.7833C32.0326 35.3764 33.0414 34.7209 33.8667 33.8666C34.7204 33.0376 35.3806 32.0303 35.8 30.9166C36.2753 29.6176 36.5343 28.2495 36.5667 26.8666C36.5667 25.1 36.6667 24.5333 36.6667 20C36.6667 15.4666 36.6667 14.9 36.5667 13.1333ZM33.5667 26.6666C33.5545 27.7246 33.3629 28.7728 33 29.7666C32.7339 30.492 32.3065 31.1474 31.75 31.6833C31.2094 32.2342 30.5554 32.6607 29.8333 32.9333C28.8395 33.2962 27.7913 33.4878 26.7333 33.5C25.0667 33.5833 24.45 33.6 20.0667 33.6C15.6833 33.6 15.0667 33.6 13.4 33.5C12.3015 33.5205 11.2077 33.3514 10.1667 33C9.47631 32.7134 8.85227 32.288 8.33334 31.75C7.78016 31.2146 7.35808 30.5586 7.10001 29.8333C6.6931 28.8252 6.46742 27.7532 6.43334 26.6666C6.43334 25 6.33334 24.3833 6.33334 20C6.33334 15.6166 6.33334 15 6.43334 13.3333C6.44081 12.2517 6.63826 11.1799 7.01668 10.1666C7.31009 9.46317 7.76045 8.83608 8.33334 8.33331C8.8397 7.76026 9.46549 7.30514 10.1667 6.99998C11.1826 6.63339 12.2533 6.44178 13.3333 6.43331C15 6.43331 15.6167 6.33331 20 6.33331C24.3833 6.33331 25 6.33331 26.6667 6.43331C27.7246 6.44545 28.7729 6.63706 29.7667 6.99998C30.5241 7.28107 31.2038 7.73806 31.75 8.33331C32.2962 8.84528 32.7229 9.4712 33 10.1666C33.3704 11.1815 33.5622 12.2529 33.5667 13.3333C33.65 15 33.6667 15.6166 33.6667 20C33.6667 24.3833 33.65 25 33.5667 26.6666ZM20 11.45C18.3097 11.4533 16.6583 11.9575 15.2544 12.899C13.8506 13.8405 12.7573 15.177 12.1127 16.7396C11.4682 18.3022 11.3012 20.0208 11.633 21.6782C11.9648 23.3356 12.7804 24.8575 13.9768 26.0516C15.1732 27.2457 16.6967 28.0583 18.3548 28.3869C20.0129 28.7155 21.7311 28.5452 23.2925 27.8975C24.8538 27.2499 26.1881 26.154 27.1269 24.7484C28.0656 23.3427 28.5667 21.6903 28.5667 20C28.5689 18.8752 28.3487 17.761 27.9187 16.7216C27.4888 15.6822 26.8576 14.738 26.0615 13.9434C25.2653 13.1488 24.3199 12.5194 23.2797 12.0915C22.2394 11.6636 21.1248 11.4456 20 11.45ZM20 25.55C18.9023 25.55 17.8293 25.2245 16.9166 24.6146C16.0039 24.0048 15.2925 23.138 14.8725 22.1239C14.4524 21.1097 14.3425 19.9938 14.5567 18.9172C14.7708 17.8406 15.2994 16.8517 16.0756 16.0755C16.8517 15.2994 17.8407 14.7708 18.9173 14.5566C19.9939 14.3425 21.1098 14.4524 22.1239 14.8724C23.138 15.2925 24.0048 16.0039 24.6147 16.9166C25.2245 17.8293 25.55 18.9023 25.55 20C25.55 20.7288 25.4065 21.4505 25.1275 22.1239C24.8486 22.7972 24.4398 23.4091 23.9245 23.9244C23.4091 24.4398 22.7973 24.8486 22.1239 25.1275C21.4505 25.4064 20.7288 25.55 20 25.55Z" fill="white"/>
</svg>
