<svg width="342" height="28" viewBox="0 0 342 28" fill="none" xmlns="http://www.w3.org/2000/svg">
<g clip-path="url(#clip0_49_27)">
<path d="M31.5 15.3968C31.7467 14.8047 32.5855 12.5843 32.5855 12.5843C32.5855 12.6336 32.8322 11.9922 32.9309 11.6468L33.1283 12.535C33.1283 12.535 33.6711 14.9527 33.7697 15.4461H31.5V15.3968Z" fill="white"/>
<path fill-rule="evenodd" clip-rule="evenodd" d="M3.375 0.465942C1.51104 0.465942 0 1.97698 0 3.84094V24.0909C0 25.9549 1.51104 27.4659 3.375 27.4659H37.125C38.989 27.4659 40.5 25.9549 40.5 24.0909V3.84094C40.5 1.97698 38.989 0.465942 37.125 0.465942H3.375ZM27.4539 15.6929C27.4539 17.7653 25.5789 19.1468 22.6678 19.1468C21.4342 19.1468 20.25 18.9001 19.6086 18.6041L20.0033 16.3343L20.3487 16.4824C21.2368 16.8771 21.8289 17.0251 22.9145 17.0251C23.7039 17.0251 24.5428 16.7291 24.5428 16.0383C24.5428 15.5942 24.1974 15.2982 23.1118 14.8047C22.0757 14.3113 20.6941 13.5218 20.6941 12.0909C20.6941 10.1172 22.6184 8.785 25.3322 8.785C26.3684 8.785 27.2566 8.98236 27.7993 9.22907L27.4046 11.4001L27.2072 11.2028C26.7138 11.0054 26.0724 10.808 25.1349 10.808C24.0987 10.8574 23.6053 11.3014 23.6053 11.6962C23.6053 12.1403 24.1974 12.4857 25.1349 12.9297C26.7138 13.6699 27.4539 14.5087 27.4539 15.6929ZM34.8553 8.93299H32.7336C32.0921 8.93299 31.5987 9.13036 31.3026 9.77181L27.2566 18.9988H30.1184C30.1184 18.9988 30.6118 17.7652 30.7105 17.4692H34.2138C34.3125 17.8146 34.5592 18.9494 34.5592 18.9494H37.125L34.8553 8.93299ZM3.42434 8.83437L3.375 9.03174C6.68092 9.82121 8.85197 11.7456 9.78947 14.114L8.85197 9.67319C8.70395 9.03174 8.25987 8.83437 7.66776 8.83437H3.42434ZM15.7599 8.93302L11.4671 18.9495H8.55592L6.08881 10.5613C7.86513 11.6962 9.34539 13.4725 9.88816 14.706L10.1842 15.7422L12.8487 8.88368H15.7599V8.93302ZM19.6086 8.88368H16.8947L15.1678 18.9495H17.8816L19.6086 8.88368Z" fill="white"/>
</g>
<g clip-path="url(#clip1_49_27)">
<path d="M80.6333 14.785C80.6333 14.8752 80.6386 14.9653 80.6492 15.0501L84.5458 13.3907C84.1482 12.9136 83.5545 12.6114 82.8865 12.6008C81.6618 12.5796 80.6545 13.5604 80.6333 14.785Z" fill="white"/>
<path fill-rule="evenodd" clip-rule="evenodd" d="M60.5 3.84094C60.5 1.97698 62.011 0.465942 63.875 0.465942H97.625C99.489 0.465942 101 1.97698 101 3.84094V24.0909C101 25.9549 99.489 27.4659 97.625 27.4659H63.875C62.011 27.4659 60.5 25.9549 60.5 24.0909V3.84094ZM68.9008 10.5172C69.2613 10.3953 69.6483 10.3317 70.0513 10.3317C71.8114 10.3317 73.2799 11.5829 73.6139 13.2423L76.1057 12.7333C75.5331 9.91286 73.0414 7.78691 70.0513 7.78691C69.3674 7.78691 68.71 7.89824 68.095 8.105L68.9008 10.5172ZM67.6445 16.6883L65.9585 18.5969C64.6808 17.4623 63.875 15.8083 63.875 13.9686C63.875 12.1236 64.6808 10.4748 65.9585 9.34029L67.6445 11.2436C66.8916 11.9063 66.4198 12.8818 66.4198 13.9633C66.4198 15.0501 66.8916 16.0203 67.6445 16.6883ZM73.6141 14.695C73.2748 16.3544 71.8115 17.6003 70.0514 17.6003C69.6485 17.6003 69.2614 17.5366 68.8956 17.4147L68.0898 19.8269C68.7048 20.0337 69.3675 20.145 70.0514 20.145C73.0415 20.145 75.5333 18.0244 76.1058 15.2039L73.6141 14.695ZM82.8228 17.0383C83.4378 17.0489 83.9945 16.8051 84.408 16.4021L85.4949 17.5154C84.8002 18.1887 83.846 18.6023 82.8016 18.5864C82.0805 18.5758 81.4178 18.3637 80.8506 18.0085L81.6776 16.6937C82.0065 16.9057 82.3987 17.033 82.8228 17.0383ZM79.0852 14.7533C79.117 12.675 80.8347 11.0103 82.913 11.0421C84.6784 11.074 86.1417 12.3092 86.5233 13.9474L79.6948 16.8686C79.2972 16.2642 79.0746 15.5326 79.0852 14.7533ZM88.6705 16.6247V9.34557H87.2232V16.6459C87.2232 17.0382 87.3292 17.3351 87.4671 17.5472C87.6102 17.7593 87.8011 17.9448 88.0821 18.0667L89.3332 18.5863L89.9324 17.1496L88.6705 16.6247ZM93.9298 12.6008C93.6806 12.6008 93.4474 12.6379 93.2247 12.7121L92.737 11.2382C93.1081 11.1163 93.511 11.0474 93.9298 11.0474C95.7536 11.0474 97.2751 12.341 97.625 14.064L96.1035 14.3768C95.8967 13.3642 95.006 12.6008 93.9298 12.6008ZM92.4559 16.4763L91.4274 17.6373C90.6481 16.9481 90.155 15.9408 90.155 14.8168C90.155 13.6929 90.6481 12.6803 91.4274 11.9911L92.4559 13.1521C91.9999 13.5551 91.7084 14.1488 91.7084 14.8115C91.7084 15.4743 91.9947 16.068 92.4559 16.4763ZM93.9298 17.0382C95.0007 17.0382 95.8967 16.2748 96.1035 15.2621L97.625 15.575C97.2752 17.298 95.7536 18.5916 93.9298 18.5916C93.511 18.5916 93.1081 18.5226 92.7317 18.3954L93.2247 16.9216C93.4474 16.9958 93.686 17.0382 93.9298 17.0382Z" fill="white"/>
</g>
<g clip-path="url(#clip2_49_27)">
<path fill-rule="evenodd" clip-rule="evenodd" d="M124.375 0.465942C122.511 0.465942 121 1.97698 121 3.84094V24.0909C121 25.9549 122.511 27.4659 124.375 27.4659H158.125C159.989 27.4659 161.5 25.9549 161.5 24.0909V3.84094C161.5 1.97698 159.989 0.465942 158.125 0.465942H124.375ZM147.698 24.0694C153.232 24.0505 157.633 19.4919 157.54 13.8764C157.447 8.2891 152.894 3.733 147.361 3.75196C145.025 3.75995 142.897 4.58563 141.224 5.94594L141.276 5.98785L140.978 5.98888C139.265 4.65537 137.123 3.85455 134.802 3.8625C129.268 3.88146 124.867 8.44 124.96 14.0555C125.053 19.6711 129.606 24.1989 135.139 24.18C137.475 24.172 139.603 23.3463 141.276 21.986L141.223 21.9441L141.522 21.9431C143.235 23.2766 145.377 24.0774 147.698 24.0694Z" fill="white"/>
</g>
<g clip-path="url(#clip3_49_27)">
<path d="M214.325 15.7388L214.466 15.7314L214.608 15.7238L214.906 15.6293L215.009 15.5608C215.065 15.5231 215.14 15.4661 215.174 15.4339C215.209 15.4019 215.263 15.3376 215.296 15.2912C215.328 15.2449 215.377 15.1581 215.406 15.0983C215.434 15.0387 215.469 14.9458 215.484 14.8924C215.506 14.8132 215.527 14.734 215.549 14.6546C215.569 14.5774 215.608 14.4004 215.634 14.2614C215.661 14.1224 215.707 13.8738 215.738 13.709C215.768 13.5441 215.81 13.3082 215.832 13.1846C215.853 13.061 215.876 12.9368 215.881 12.9085L215.892 12.8571L215.839 12.8365C215.81 12.8251 215.706 12.7937 215.608 12.7665L215.43 12.7171L214.812 12.7173L214.517 12.8193L214.434 12.8708C214.387 12.8992 214.31 12.9609 214.261 13.0079C214.212 13.055 214.138 13.1393 214.097 13.1953C214.055 13.2512 213.995 13.3475 213.963 13.4093C213.922 13.488 213.884 13.5679 213.848 13.6486C213.817 13.7184 213.791 13.7857 213.791 13.7983C213.791 13.811 213.77 13.8887 213.744 13.9711L213.697 14.1209L213.636 14.5516L213.632 15.0385L213.658 15.1603L213.684 15.282L213.798 15.5005L213.952 15.6263L214.043 15.6653C214.093 15.6868 214.177 15.7122 214.229 15.7216L214.325 15.7388Z" fill="white"/>
<path d="M207.902 15.7401L208.201 15.7246L208.505 15.6284L208.574 15.5817C208.612 15.556 208.65 15.5348 208.658 15.5348C208.666 15.5348 208.724 15.4848 208.785 15.4236L208.898 15.3123L208.966 15.1975C209.004 15.1343 209.035 15.0775 209.035 15.0712C209.035 15.065 209.059 14.9961 209.09 14.9181C209.12 14.8401 209.167 14.6963 209.193 14.5985C209.219 14.5006 209.252 14.3544 209.265 14.2736L209.29 14.1266L209.231 14.1022H208.295L207.995 14.1734L207.754 14.2895L207.527 14.515L207.468 14.6373C207.435 14.7046 207.394 14.8089 207.377 14.8689L207.345 14.9782L207.361 15.3381L207.401 15.4152C207.423 15.4576 207.462 15.517 207.487 15.5474L207.534 15.6024L207.618 15.646C207.665 15.67 207.748 15.701 207.802 15.7148L207.902 15.7401Z" fill="white"/>
<path d="M198.192 13.6165C198.192 13.621 198.616 13.6247 199.134 13.6247H200.077L200.117 13.2595L200.082 13.0401L200.056 12.9906C200.041 12.9634 200.004 12.9134 199.972 12.8794L199.915 12.8176L199.706 12.7219L199.418 12.6849L199.231 12.6969C199.128 12.7035 199.01 12.7175 198.969 12.7281C198.928 12.7387 198.839 12.7736 198.772 12.8056L198.651 12.8637L198.403 13.1102L198.346 13.2224C198.316 13.284 198.268 13.396 198.241 13.4713C198.214 13.5466 198.192 13.612 198.192 13.6165Z" fill="white"/>
<path d="M194.634 15.7392L194.737 15.7574L195.049 15.7387L195.367 15.6305L195.436 15.5793C195.481 15.5447 195.526 15.5089 195.57 15.4717C195.606 15.4408 195.667 15.3719 195.705 15.3189C195.743 15.2659 195.809 15.1559 195.852 15.0743L195.93 14.9263L195.994 14.7433C196.029 14.6428 196.079 14.4658 196.106 14.3501L196.154 14.1398L196.173 13.4281L196.142 13.3077C196.124 13.2415 196.091 13.1485 196.066 13.1009L196.023 13.0145L195.86 12.8512L195.666 12.762L195.392 12.7035L195.055 12.7232L194.793 12.8044L194.692 12.8614C194.637 12.8927 194.543 12.9586 194.484 13.0077L194.377 13.097L194.328 13.3562C194.301 13.4987 194.253 13.7629 194.221 13.9432C194.187 14.1368 194.152 14.3303 194.116 14.5237L194.067 14.7765L194.048 15.0992L194.072 15.1999C194.085 15.2554 194.115 15.3429 194.138 15.3944L194.18 15.488L194.252 15.5572L194.325 15.6265L194.532 15.7212L194.634 15.7392Z" fill="white"/>
<path fill-rule="evenodd" clip-rule="evenodd" d="M184.875 0.465942C183.011 0.465942 181.5 1.97698 181.5 3.84094V24.0909C181.5 25.9549 183.011 27.4659 184.875 27.4659H218.625C220.489 27.4659 222 25.9549 222 24.0909V3.84094C222 1.97698 220.489 0.465942 218.625 0.465942H184.875ZM192.848 11.6023L192.621 11.6014L192.464 11.5302L192.423 11.4505L192.383 11.3707L192.399 11.0498L192.487 10.8439L192.598 10.7246L192.789 10.6388H193.071L193.201 10.7195L193.239 10.7817L193.276 10.8439L193.273 11.1622L193.231 11.2703L193.189 11.3784L193.029 11.5407L192.848 11.6023ZM211.263 16.1715H210.446L210.571 15.5443C210.601 15.3898 210.651 15.1327 210.682 14.973C210.712 14.8135 210.758 14.569 210.784 14.43C210.82 14.2337 210.855 14.037 210.888 13.8401C210.926 13.6124 210.963 13.3845 211 13.1566C211.03 12.966 211.073 12.6954 211.094 12.5552C211.115 12.415 211.132 12.2949 211.132 12.2884V12.2764H211.825L211.824 12.3186C211.824 12.3417 211.799 12.4829 211.77 12.6323C211.741 12.7816 211.719 12.9065 211.722 12.9097C211.725 12.913 211.76 12.8667 211.8 12.8067L211.872 12.6978L212.14 12.4169L212.346 12.2925L212.621 12.1958L212.958 12.195L213.052 12.2245C213.1 12.2395 213.147 12.2557 213.195 12.2732L213.244 12.2925L213.2 12.5045C213.176 12.6211 213.156 12.7434 213.155 12.7763L213.155 12.836L213.139 12.8456L213.124 12.8552L212.939 12.7961L212.471 12.7928L212.364 12.8449C212.304 12.8736 212.206 12.9347 212.145 12.9808L212.033 13.0645L211.83 13.335L211.752 13.4982C211.71 13.588 211.675 13.6721 211.675 13.6852C211.675 13.6983 211.661 13.7469 211.645 13.7933C211.629 13.8396 211.59 13.9955 211.559 14.1397C211.529 14.2839 211.492 14.4734 211.478 14.561C211.464 14.6486 211.432 14.8508 211.405 15.0105C211.379 15.17 211.336 15.4404 211.31 15.611L211.263 15.9213V16.1715ZM201.763 16.1715L200.963 16.1715V16.155C200.963 16.1461 200.975 16.0808 200.99 16.01C201.004 15.9391 201.042 15.7506 201.074 15.591C201.147 15.2167 201.219 14.8422 201.29 14.4674C201.326 14.2712 201.361 14.0744 201.393 13.8775C201.424 13.6922 201.47 13.4056 201.496 13.2408C201.522 13.076 201.565 12.812 201.591 12.6539C201.616 12.4959 201.637 12.3464 201.637 12.3215V12.2764H202.352L202.342 12.3092C202.336 12.3272 202.314 12.4431 202.293 12.5667C202.271 12.6902 202.246 12.8251 202.237 12.8663L202.221 12.9412L202.248 12.9038C202.289 12.8474 202.33 12.7913 202.371 12.7352C202.424 12.6631 202.508 12.5638 202.559 12.5146C202.609 12.4654 202.695 12.3959 202.751 12.3603C202.807 12.3246 202.897 12.279 202.952 12.2589C203.007 12.2388 203.106 12.2127 203.173 12.2008L203.295 12.1793L203.388 12.1909C203.44 12.1973 203.543 12.221 203.618 12.2437C203.693 12.2664 203.754 12.2903 203.754 12.2969C203.754 12.3034 203.733 12.4121 203.707 12.5386C203.681 12.665 203.66 12.7884 203.66 12.8127C203.66 12.837 203.655 12.8569 203.649 12.8569C203.643 12.8569 203.59 12.8426 203.532 12.8252L203.426 12.7937L202.995 12.7913L202.714 12.926L202.485 13.1375L202.4 13.2641C202.353 13.3337 202.284 13.456 202.248 13.5358C202.211 13.6157 202.181 13.6926 202.181 13.7067C202.181 13.7208 202.168 13.7679 202.153 13.8114C202.137 13.8549 202.092 14.0561 202.052 14.2585C202.005 14.4991 201.961 14.7405 201.921 14.9824C201.89 15.178 201.846 15.4495 201.825 15.5857C201.804 15.7218 201.782 15.9093 201.775 16.0023L201.763 16.1715ZM192.345 16.1715H191.54L191.551 16.1294C191.557 16.1062 191.579 16.0072 191.599 15.9094C191.619 15.8115 191.661 15.6009 191.692 15.4412C191.723 15.2815 191.77 15.0371 191.796 14.898L191.898 14.3551C191.934 14.1588 191.969 13.9621 192.001 13.7651C192.027 13.6004 192.074 13.3096 192.106 13.1191C192.137 12.9286 192.178 12.6631 192.196 12.5292L192.23 12.2857L193.045 12.2757L193.035 12.2922C193.029 12.3012 192.995 12.4593 192.958 12.6436C192.921 12.8279 192.87 13.0924 192.844 13.2315C192.818 13.3705 192.772 13.6107 192.742 13.7651C192.707 13.9489 192.673 14.1331 192.642 14.3176C192.567 14.7554 192.495 15.1935 192.424 15.6318C192.393 15.8241 192.368 16.011 192.368 16.047C192.368 16.0829 192.363 16.1256 192.357 16.1419L192.345 16.1715ZM187.36 16.1715L186.45 16.1714V16.1411C186.45 16.1243 186.472 16.0043 186.499 15.8742C186.525 15.7442 186.554 15.5956 186.563 15.5441C186.572 15.4926 186.6 15.3494 186.625 15.2258C186.661 15.0481 186.697 14.8702 186.73 14.6921L186.834 14.149C186.868 13.965 186.902 13.7808 186.936 13.5965C186.976 13.3722 187.014 13.1474 187.05 12.9224L187.153 12.2763C187.178 12.1167 187.225 11.826 187.256 11.6303C187.288 11.4346 187.322 11.2197 187.332 11.1528C187.342 11.0858 187.364 10.9573 187.38 10.8672L187.409 10.7033H188.327L188.316 10.733C188.309 10.7493 188.287 10.8589 188.267 10.9764C188.246 11.094 188.216 11.2513 188.2 11.3259C188.185 11.4007 188.164 11.5208 188.154 11.5929C188.143 11.6649 188.114 11.8377 188.088 11.9767C188.061 12.1204 188.033 12.264 188.004 12.4074C187.981 12.5193 187.96 12.6314 187.94 12.7438C187.925 12.831 187.915 12.9037 187.917 12.9055C187.919 12.9073 188.177 12.9149 188.489 12.9223L189.058 12.9358L190.416 12.9083L190.447 12.7C190.475 12.518 190.504 12.3363 190.535 12.1547C190.565 11.9692 190.611 11.7038 190.636 11.5647C190.661 11.4257 190.698 11.2151 190.718 11.0966C190.739 10.9782 190.761 10.8412 190.768 10.7923L190.781 10.7033H191.706L191.674 10.8391C191.657 10.9138 191.617 11.1181 191.585 11.2932C191.553 11.4683 191.505 11.7295 191.479 11.8737C191.453 12.0179 191.406 12.275 191.375 12.4449C191.344 12.6149 191.293 12.8845 191.263 13.0442C191.228 13.2312 191.194 13.4185 191.162 13.606C191.136 13.7553 191.089 14.0333 191.058 14.2239C191.026 14.4144 190.976 14.7136 190.945 14.8887C190.915 15.0638 190.874 15.3083 190.853 15.4318C190.832 15.5553 190.806 15.7197 190.795 15.797C190.784 15.8742 190.766 15.9902 190.755 16.0545L190.735 16.1715H189.821L189.821 16.1481C189.821 16.1352 189.851 15.9603 189.887 15.7595C189.923 15.5587 189.973 15.289 189.998 15.1603C190.033 14.9763 190.068 14.7921 190.102 14.6079L190.216 13.9899C190.246 13.8251 190.281 13.6416 190.292 13.5821L190.313 13.474L190.3 13.4604L190.286 13.4468H187.839L187.829 13.4573C187.823 13.4631 187.798 13.581 187.773 13.7195C187.748 13.8579 187.706 14.0976 187.68 14.2521C187.653 14.4065 187.606 14.6888 187.574 14.8794L187.471 15.4974C187.446 15.6466 187.411 15.8595 187.393 15.9702L187.36 16.1715ZM214.325 16.2649L214.147 16.2626C214.049 16.2614 213.917 16.2536 213.853 16.2453C213.789 16.237 213.684 16.2157 213.619 16.1979C213.554 16.1802 213.45 16.1404 213.388 16.1098L213.276 16.054L213.194 15.9865L213.111 15.9191L212.967 15.724L212.928 15.6246C212.906 15.5701 212.877 15.4875 212.863 15.4412L212.838 15.3569L212.796 14.8887L212.852 14.3069L212.909 14.0828C212.941 13.9596 212.989 13.7998 213.016 13.7276C213.044 13.6556 213.112 13.5013 213.168 13.3847L213.269 13.173L213.356 13.049C213.404 12.9808 213.494 12.8703 213.556 12.8036L213.669 12.6821L213.931 12.4881L214.287 12.3146L214.662 12.2199L215.074 12.1815L215.561 12.2194L215.739 12.2641C215.836 12.2886 215.931 12.3148 215.948 12.3222L215.98 12.3357L215.99 12.2733C216.011 12.14 216.033 12.0069 216.056 11.8737C216.094 11.6429 216.131 11.412 216.168 11.1809C216.199 10.9851 216.23 10.7724 216.236 10.708L216.248 10.5909H217.049V10.605C217.05 10.6127 217.029 10.716 217.004 10.8344C216.969 11.0058 216.935 11.1775 216.901 11.3494C216.87 11.5142 216.822 11.767 216.795 11.9112L216.693 12.4637C216.663 12.6233 216.614 12.8929 216.583 13.0629C216.552 13.2328 216.505 13.4941 216.48 13.6434C216.454 13.7927 216.415 14.0161 216.393 14.1397C216.371 14.2633 216.333 14.4991 216.308 14.6639C216.283 14.8288 216.237 15.1785 216.207 15.4412L216.151 15.9187V16.1715H215.416L215.428 16.0451C215.435 15.9756 215.448 15.8766 215.457 15.8251C215.468 15.763 215.476 15.7004 215.483 15.6378L215.493 15.5441L215.482 15.5723C215.476 15.5878 215.425 15.6614 215.369 15.7362L215.267 15.8718L215.074 16.042L214.961 16.0996C214.9 16.1312 214.807 16.169 214.756 16.1837C214.704 16.1982 214.586 16.2225 214.493 16.2375L214.325 16.2649ZM208.07 16.2486L207.564 16.2632L207.454 16.2458C207.393 16.2362 207.286 16.2119 207.216 16.192L207.087 16.1558L206.863 16.0197L206.8 15.946C206.766 15.9055 206.715 15.8304 206.687 15.7793L206.636 15.686L206.581 15.4003V15.0572L206.638 14.7302L206.701 14.5847C206.735 14.5046 206.792 14.3971 206.826 14.3456C206.861 14.2942 206.94 14.2014 207.002 14.1396L207.115 14.0272L207.258 13.9383C207.337 13.8894 207.409 13.8494 207.418 13.8494C207.428 13.8494 207.471 13.8325 207.513 13.8117C207.556 13.791 207.691 13.7469 207.812 13.7136L208.032 13.6531L209.38 13.6483L209.445 13.3344L209.446 13.0484L209.325 12.867L209.107 12.7597L208.782 12.7026L208.276 12.7234L207.995 12.7712C207.841 12.7976 207.635 12.8404 207.538 12.8664C207.441 12.8925 207.359 12.9111 207.356 12.9078C207.353 12.9044 207.374 12.8095 207.404 12.6967C207.433 12.5839 207.467 12.4433 207.479 12.3841L207.501 12.2763L207.808 12.2751L208.033 12.2479C208.156 12.2329 208.398 12.2119 208.569 12.2013L208.881 12.182L209.366 12.2188L209.718 12.2971L209.954 12.4168L210.098 12.5549L210.204 12.7717L210.201 13.2408L210.15 13.5123C210.123 13.6617 210.076 13.9186 210.046 14.0834C210.017 14.2483 209.971 14.5096 209.945 14.6639C209.918 14.8184 209.875 15.1007 209.848 15.2913L209.799 15.6377L209.778 16.1714H209.091L209.091 16.0544C209.091 15.99 209.103 15.8532 209.118 15.7503C209.132 15.6475 209.142 15.561 209.139 15.558C209.136 15.5549 209.1 15.5969 209.059 15.6513C209.018 15.7057 208.943 15.7911 208.892 15.8412C208.842 15.8913 208.754 15.9632 208.697 16.001C208.641 16.0388 208.548 16.0918 208.491 16.1185L208.388 16.1671L208.07 16.2486ZM204.943 16.2651L204.737 16.2629C204.623 16.2616 204.482 16.2532 204.421 16.2443C204.361 16.2356 204.247 16.2105 204.168 16.1886L204.025 16.1488L203.916 16.0913L203.807 16.0337L203.704 15.9323L203.601 15.8308L203.537 15.7296L203.472 15.6283L203.36 15.3482L203.324 15.0758L203.324 14.6077L203.359 14.2519L203.407 14.0553C203.434 13.9471 203.486 13.7701 203.524 13.662L203.592 13.4654L203.681 13.2838C203.731 13.1838 203.807 13.0493 203.851 12.9848L203.931 12.8675L204.074 12.7264C204.153 12.6487 204.241 12.5684 204.271 12.5477C204.319 12.5146 204.369 12.4827 204.419 12.4522C204.471 12.4202 204.568 12.3723 204.635 12.3458L204.755 12.2976L205.13 12.2189L205.636 12.1801L205.994 12.2006C206.191 12.212 206.422 12.2292 206.507 12.2389C206.592 12.2485 206.665 12.2601 206.67 12.2647C206.674 12.2692 206.665 12.3431 206.65 12.4291C206.635 12.515 206.611 12.6548 206.598 12.7397C206.585 12.8247 206.572 12.8943 206.569 12.8943C206.566 12.8943 206.519 12.8776 206.465 12.8573L206.366 12.8203L205.879 12.7229L205.467 12.7022L205.327 12.7242C205.249 12.7361 205.132 12.7628 205.065 12.7833L204.944 12.8206L204.755 12.9375L204.577 13.1221L204.505 13.2469C204.465 13.3156 204.405 13.435 204.371 13.5122C204.337 13.5895 204.303 13.6779 204.295 13.7088C204.287 13.7397 204.262 13.824 204.241 13.8961L204.202 14.0272L204.128 14.5141L204.128 14.916L204.189 15.2257L204.316 15.4573L204.507 15.6249L204.755 15.711L205.192 15.7259L205.706 15.6264L205.886 15.5594C205.985 15.5226 206.077 15.484 206.09 15.4735C206.103 15.4631 206.117 15.4579 206.121 15.462C206.125 15.466 206.119 15.5198 206.109 15.5817C206.099 15.6434 206.075 15.7731 206.056 15.8698C206.037 15.9665 206.015 16.0515 206.007 16.0587C205.998 16.0658 205.927 16.0899 205.848 16.1123C205.752 16.1385 205.655 16.1615 205.558 16.1811C205.477 16.1968 205.306 16.2222 205.177 16.2373L204.943 16.2651ZM198.988 16.2651L198.782 16.2628C198.668 16.2615 198.517 16.2529 198.446 16.2437C198.375 16.2345 198.247 16.2104 198.163 16.1899L198.01 16.1528L197.899 16.1027C197.839 16.0751 197.747 16.0211 197.696 15.9828C197.644 15.9446 197.567 15.8764 197.525 15.8316C197.483 15.7867 197.426 15.7121 197.4 15.6658C197.373 15.6194 197.335 15.5351 197.314 15.4785C197.293 15.4218 197.263 15.3207 197.247 15.2537L197.219 15.132L197.218 14.5747L197.248 14.3852C197.269 14.2589 197.294 14.1333 197.322 14.0085C197.347 13.9055 197.388 13.758 197.415 13.6807C197.441 13.6035 197.48 13.4981 197.502 13.4467C197.524 13.3952 197.571 13.2941 197.608 13.2219C197.644 13.1498 197.708 13.0403 197.75 12.9785C197.792 12.9167 197.868 12.8239 197.92 12.7722C197.972 12.7205 198.052 12.6475 198.099 12.6099C198.145 12.5724 198.237 12.5106 198.304 12.4726C198.371 12.4347 198.489 12.3783 198.567 12.3475L198.707 12.2913L199.156 12.205L199.531 12.1806L199.934 12.2192L200.261 12.298L200.355 12.3478C200.406 12.3752 200.479 12.4188 200.515 12.4448C200.552 12.4708 200.608 12.5214 200.639 12.5574C200.67 12.5933 200.718 12.6608 200.744 12.7074L200.793 12.792L200.853 13.0478L200.852 13.3905L200.824 13.5942C200.809 13.7061 200.783 13.8578 200.766 13.9312L200.734 14.0646L198.651 14.0512L198.087 14.0776L198.023 14.4953L198.023 14.9636L198.096 15.2166L198.211 15.4184L198.359 15.5521L198.449 15.5964C198.498 15.6209 198.589 15.657 198.651 15.6767L198.763 15.7125L199.418 15.7112L199.625 15.6714L199.831 15.6313L200.027 15.5667C200.135 15.5311 200.255 15.4867 200.294 15.4682L200.364 15.4344L200.374 15.4445L200.384 15.4545L200.338 15.6773C200.313 15.7997 200.287 15.9379 200.281 15.9843L200.27 16.0688L200.041 16.1191C199.915 16.1467 199.719 16.1825 199.606 16.1984C199.492 16.2144 199.307 16.236 199.194 16.2463L198.988 16.2651ZM193.573 17.8834L193.562 17.9131L192.757 17.913L192.767 17.8708C192.773 17.8477 192.802 17.7023 192.833 17.5479C192.871 17.3544 192.908 17.161 192.945 16.9674C192.984 16.7614 193.022 16.5554 193.06 16.3493L193.265 15.2352C193.296 15.0652 193.347 14.7786 193.377 14.5985C193.447 14.1898 193.515 13.7809 193.583 13.3719C193.614 13.1865 193.666 12.8642 193.699 12.6556L193.76 12.2764H194.446L194.446 12.2998C194.445 12.3127 194.429 12.3972 194.41 12.4877L194.376 12.6522L194.425 12.62C194.452 12.6024 194.486 12.5764 194.5 12.5624C194.514 12.5484 194.569 12.5089 194.623 12.4744C194.677 12.44 194.778 12.3856 194.847 12.3537L194.973 12.2954L195.262 12.2215L195.617 12.1808L195.935 12.2041L196.253 12.2804L196.542 12.4298L196.787 12.6888L196.913 12.9412L196.992 13.2783L197.016 13.6154L196.995 13.8139C196.983 13.9232 196.957 14.1002 196.936 14.2072L196.898 14.4018L196.826 14.6266C196.786 14.7502 196.717 14.9356 196.673 15.0385C196.63 15.1415 196.57 15.2611 196.541 15.3041C196.511 15.3473 196.488 15.3872 196.488 15.3929C196.488 15.3986 196.448 15.4561 196.399 15.5205C196.35 15.5851 196.256 15.6929 196.188 15.76L196.066 15.8822L195.935 15.9676C195.863 16.0145 195.753 16.0761 195.692 16.1042L195.579 16.1555L195.161 16.2638L194.774 16.2876L194.469 16.2481L194.214 16.1459L194.006 15.9366L193.959 15.8481C193.934 15.7994 193.908 15.7596 193.902 15.7596C193.896 15.7596 193.88 15.8333 193.868 15.9234C193.846 16.075 193.824 16.2263 193.8 16.3776L193.699 17.0143C193.669 17.2048 193.631 17.4466 193.614 17.5519C193.598 17.6569 193.585 17.7679 193.585 17.7983C193.585 17.8289 193.58 17.8672 193.573 17.8834Z" fill="white"/>
</g>
<g clip-path="url(#clip4_49_27)">
<path fill-rule="evenodd" clip-rule="evenodd" d="M250.363 13.9666C250.365 8.84661 254.452 4.69808 259.497 4.6965C264.543 4.69833 268.632 8.84648 268.632 13.9666C268.632 19.0858 264.543 23.234 259.497 23.2355C254.452 23.2337 250.364 19.0858 250.363 13.9666ZM257.44 8.45836C255.269 9.30615 253.729 11.4396 253.724 13.9416C253.728 16.4438 255.269 18.5763 257.44 19.4236V8.45836ZM261.584 8.45866V19.4263C263.757 18.5789 265.3 16.4461 265.304 13.9422C265.3 11.4392 263.757 9.30445 261.584 8.45866Z" fill="white"/>
<path fill-rule="evenodd" clip-rule="evenodd" d="M242 3.84094C242 1.97698 243.492 0.465942 245.333 0.465942H278.667C280.508 0.465942 282 1.97698 282 3.84094V24.0909C282 25.9549 280.508 27.4659 278.667 27.4659H245.333C243.492 27.4659 242 25.9549 242 24.0909V3.84094ZM264.162 3.84094C269.618 3.83912 274.597 8.01389 274.597 14.054C274.597 19.5771 269.618 24.1174 264.162 24.0908H259.467C253.947 24.1176 249.403 19.5786 249.403 14.054C249.403 8.01517 253.947 3.83894 259.467 3.84094H264.162Z" fill="white"/>
</g>
<g clip-path="url(#clip5_49_27)">
<path fill-rule="evenodd" clip-rule="evenodd" d="M320.423 18.4331H321.826C322.809 18.4331 323.785 18.1845 323.785 16.9805C323.785 15.7802 322.782 15.5526 321.89 15.5526H318.296L316.866 16.9733L315.483 15.5526H310.96V19.8869H315.414L316.853 18.4521L318.238 19.8869H320.423V18.4331ZM320.399 16.4405H321.865C322.271 16.4405 322.553 16.5929 322.553 16.972C322.553 17.3469 322.284 17.5444 321.852 17.5444H320.399V16.4405ZM312.08 17.2285V16.4405H314.899L316.129 17.7036L314.845 18.9752H312.08V18.1129H314.549V17.2285H312.08ZM319.299 15.9966V19.4715L317.573 17.7061L319.299 15.9966Z" fill="white"/>
<path fill-rule="evenodd" clip-rule="evenodd" d="M328.76 19.0277C328.755 18.6456 328.732 18.4481 328.573 18.2365C328.477 18.1103 328.273 17.9578 328.023 17.8728C328.319 17.7643 328.819 17.4114 328.82 16.7196C328.82 16.2252 328.596 15.9546 328.241 15.7571C327.872 15.5759 327.458 15.5526 326.888 15.5526H324.292V19.8869H325.422V18.304H326.624C327.034 18.304 327.285 18.3411 327.449 18.4963C327.637 18.6777 327.634 19.0085 327.631 19.263C327.631 19.2913 327.631 19.3186 327.631 19.3447V19.8869H328.76V19.0277ZM326.85 16.4406C327.05 16.4406 327.251 16.4445 327.386 16.5189C327.532 16.5891 327.619 16.7233 327.619 16.9087C327.619 17.094 327.532 17.2435 327.386 17.3247C327.236 17.4068 327.05 17.414 326.832 17.414H325.465V16.4406H326.85Z" fill="white"/>
<path d="M330.585 16.449H333.218V15.5526H329.465V19.8869H333.218V18.9875L330.585 18.9837V18.1213H333.154V17.2369H330.585V16.449Z" fill="white"/>
<path d="M333.918 19.8868H336.108C337.242 19.8868 337.874 19.4515 337.874 18.5191C337.874 18.0731 337.757 17.8095 337.538 17.6008C337.283 17.3633 336.864 17.2658 336.254 17.2524L335.648 17.2371C335.457 17.2371 335.329 17.2261 335.211 17.188C335.069 17.14 334.965 17.0287 334.965 16.8652C334.965 16.7278 335.01 16.6237 335.134 16.5535C335.247 16.4822 335.38 16.475 335.584 16.475H337.647V15.5526H335.393C334.214 15.5526 333.785 16.2143 333.785 16.843C333.785 18.1246 334.935 18.1536 335.944 18.179C336.014 18.1807 336.085 18.1825 336.154 18.1847C336.349 18.1847 336.468 18.2146 336.554 18.2807C336.631 18.3408 336.691 18.4411 336.691 18.5675C336.691 18.6855 336.636 18.783 336.558 18.85C336.464 18.9314 336.312 18.9574 336.099 18.9574H333.918V19.8868Z" fill="white"/>
<path fill-rule="evenodd" clip-rule="evenodd" d="M305.333 0.465942C303.492 0.465942 302 1.97698 302 3.84094V12.388H303.221L303.658 11.4214H305.999L306.431 12.388H308.718V8.99116L310.353 12.388H311.34L312.971 8.99416L312.975 12.388H314.128V8.05462H312.256L310.904 10.9942L309.432 8.05462H307.597V12.1574L305.684 8.05462H304.014L302 12.388L302 10.0895L303.362 7.21594H306.294L306.672 7.92969V7.21594H310.11L310.863 8.77694L311.595 7.21594H322.512C323.008 7.21594 323.454 7.30114 323.781 7.56885V7.21594H326.77V7.56885C327.284 7.30912 327.921 7.21594 328.646 7.21594H332.976L333.378 7.92969V7.21594H336.583L337.021 7.92969V7.21594H340.145V13.2594H336.988L336.392 12.3452V13.2594H332.453L332.025 12.2969H331.055L330.617 13.2594H328.573C327.771 13.2594 327.162 13.085 326.77 12.8916V13.2594H321.911V11.8879C321.911 11.6943 321.874 11.6835 321.746 11.6794H321.565L321.569 13.2594H312.174V12.5125L311.837 13.2628H309.874L309.537 12.5238V13.2597H305.757L305.325 12.2972H304.355L303.921 13.2597H302V24.0909C302 25.9549 303.492 27.4659 305.333 27.4659H338.667C340.508 27.4659 342 25.9549 342 24.0909V17.6738C341.995 17.6682 341.991 17.6625 341.986 17.6569C341.96 17.6255 341.934 17.5946 341.896 17.5666C341.645 17.3291 341.235 17.2316 340.62 17.2176L340.01 17.2026C339.823 17.2026 339.696 17.1915 339.577 17.1535C339.431 17.1054 339.331 16.994 339.331 16.8307C339.331 16.6932 339.377 16.5891 339.495 16.5188C339.61 16.4476 339.746 16.4405 339.95 16.4405L342 16.4406V3.84094C342 1.97698 340.508 0.465942 338.667 0.465942H305.333ZM304.08 10.5219L304.846 8.79439L305.615 10.5219H304.08ZM338.3 19.8612H340.472C341.192 19.8612 341.725 19.6749 341.998 19.307V20.4337C341.547 20.6342 340.955 20.7124 340.349 20.7124H337.435V20.3253C337.097 20.5751 336.488 20.7124 335.905 20.7124H326.719V19.3148C326.719 19.1435 326.7 19.1363 326.514 19.1363H326.368V20.7128H323.345V19.0806C322.838 19.2821 322.265 19.3003 321.778 19.2931H321.418V20.7159L317.752 20.713L316.851 19.7725L315.894 20.713H309.947V14.6646H316.008L316.878 15.5903L317.806 14.6646H321.864C322.333 14.6646 323.103 14.7099 323.449 15.0187V14.6646H327.075C327.415 14.6646 328.154 14.7279 328.591 15.0187V14.6646H334.088V15.0187C334.361 14.777 334.939 14.6646 335.431 14.6646H338.509V15.0187C338.832 14.8032 339.289 14.6646 339.917 14.6646H341.998V15.527H339.758C338.578 15.527 338.144 16.1887 338.144 16.8173C338.144 18.0993 339.295 18.128 340.308 18.1532C340.378 18.155 340.448 18.1567 340.517 18.1589C340.713 18.1589 340.832 18.189 340.914 18.2552C340.997 18.3152 341.051 18.4155 341.051 18.5418C341.052 18.6491 341.004 18.7518 340.918 18.8244C340.828 18.9059 340.678 18.9318 340.463 18.9318H338.3V19.8612Z" fill="white"/>
<path fill-rule="evenodd" clip-rule="evenodd" d="M328.686 8.05437C327.911 8.05437 327.342 8.21386 326.978 8.55972C326.495 9.02399 326.372 9.61147 326.372 10.2542C326.372 11.0422 326.578 11.5406 326.973 11.9084C327.365 12.2764 328.057 12.3878 328.603 12.3878H329.919L330.344 11.4212H332.68L333.117 12.3878H335.407V9.13541L337.539 12.3878H339.132V8.05457H337.98V11.0725L336.004 8.05457H334.292V12.1532L332.388 8.05452H330.703L329.118 11.4623H328.613C328.317 11.4623 328.003 11.4103 327.829 11.2388C327.621 11.0201 327.52 10.6854 327.52 10.2211C327.52 9.76697 327.652 9.42206 327.844 9.23964C328.067 9.03908 328.299 8.98287 328.709 8.98287H329.775V8.05437H328.686ZM330.745 10.5219L331.519 8.79439L332.297 10.5219H330.745Z" fill="white"/>
<path d="M325.813 8.05442H324.665V12.3878H325.813V8.05442Z" fill="white"/>
<path fill-rule="evenodd" clip-rule="evenodd" d="M322.079 8.05442H319.492L319.493 12.3878H320.617V10.8116H321.824C322.229 10.8116 322.48 10.8448 322.644 10.9971C322.828 11.1843 322.824 11.5062 322.822 11.7587C322.822 11.7872 322.821 11.8148 322.821 11.8413L322.826 12.3877H323.96V11.5364C323.96 11.1494 323.932 10.9569 323.774 10.7414C323.673 10.6152 323.463 10.4628 323.217 10.3765C323.509 10.2693 324.009 9.91236 324.009 9.2214C324.009 8.73814 323.796 8.45554 323.44 8.26198C323.077 8.06847 322.653 8.05442 322.079 8.05442ZM322.82 9.45292C322.82 9.64229 322.734 9.79478 322.588 9.86489C322.433 9.95131 322.251 9.95427 322.032 9.95422H320.666V8.9917H322.05C322.246 8.9917 322.451 8.99978 322.584 9.06979C322.73 9.13295 322.82 9.26735 322.82 9.45292Z" fill="white"/>
<path d="M318.716 8.05442H314.959V12.3877H318.716V11.4916H316.084V10.6262H318.653V9.73788H316.084V8.95679H318.716V8.05442Z" fill="white"/>
</g>
<defs>
<clipPath id="clip0_49_27">
<rect width="40.5" height="27" fill="white" transform="translate(0 0.465942)"/>
</clipPath>
<clipPath id="clip1_49_27">
<rect width="40.5" height="27" fill="white" transform="translate(60.5 0.465942)"/>
</clipPath>
<clipPath id="clip2_49_27">
<rect width="40.5" height="27" fill="white" transform="translate(121 0.465942)"/>
</clipPath>
<clipPath id="clip3_49_27">
<rect width="40.5" height="27" fill="white" transform="translate(181.5 0.465942)"/>
</clipPath>
<clipPath id="clip4_49_27">
<rect width="40" height="27" fill="white" transform="translate(242 0.465942)"/>
</clipPath>
<clipPath id="clip5_49_27">
<rect width="40" height="27" fill="white" transform="translate(302 0.465942)"/>
</clipPath>
</defs>
</svg>
