<svg width="342" height="27" viewBox="0 0 342 27" fill="none" xmlns="http://www.w3.org/2000/svg">
<g clip-path="url(#clip0_169_571)">
<path d="M31.5 14.9309C31.7467 14.3388 32.5855 12.1184 32.5855 12.1184C32.5855 12.1677 32.8322 11.5263 32.9309 11.1809L33.1283 12.069C33.1283 12.069 33.6711 14.4868 33.7697 14.9802H31.5V14.9309Z" fill="#080A0C" fill-opacity="0.8"/>
<path fill-rule="evenodd" clip-rule="evenodd" d="M3.375 0C1.51104 0 0 1.51104 0 3.375V23.625C0 25.489 1.51104 27 3.375 27H37.125C38.989 27 40.5 25.489 40.5 23.625V3.375C40.5 1.51104 38.989 0 37.125 0H3.375ZM27.4539 15.2269C27.4539 17.2993 25.5789 18.6809 22.6678 18.6809C21.4342 18.6809 20.25 18.4342 19.6086 18.1381L20.0033 15.8684L20.3487 16.0164C21.2368 16.4112 21.8289 16.5592 22.9145 16.5592C23.7039 16.5592 24.5428 16.2631 24.5428 15.5723C24.5428 15.1283 24.1974 14.8322 23.1118 14.3388C22.0757 13.8454 20.6941 13.0559 20.6941 11.625C20.6941 9.65129 22.6184 8.31905 25.3322 8.31905C26.3684 8.31905 27.2566 8.51642 27.7993 8.76313L27.4046 10.9342L27.2072 10.7368C26.7138 10.5394 26.0724 10.3421 25.1349 10.3421C24.0987 10.3914 23.6053 10.8355 23.6053 11.2302C23.6053 11.6743 24.1974 12.0197 25.1349 12.4638C26.7138 13.2039 27.4539 14.0427 27.4539 15.2269ZM34.8553 8.46705H32.7336C32.0921 8.46705 31.5987 8.66442 31.3026 9.30586L27.2566 18.5328H30.1184C30.1184 18.5328 30.6118 17.2993 30.7105 17.0032H34.2138C34.3125 17.3486 34.5592 18.4835 34.5592 18.4835H37.125L34.8553 8.46705ZM3.42434 8.36843L3.375 8.5658C6.68092 9.35527 8.85197 11.2796 9.78947 13.648L8.85197 9.20724C8.70395 8.5658 8.25987 8.36843 7.66776 8.36843H3.42434ZM15.7599 8.46708L11.4671 18.4835H8.55592L6.08881 10.0954C7.86513 11.2302 9.34539 13.0066 9.88816 14.2401L10.1842 15.2763L12.8487 8.41774H15.7599V8.46708ZM19.6086 8.41774H16.8947L15.1678 18.4835H17.8816L19.6086 8.41774Z" fill="#080A0C" fill-opacity="0.8"/>
</g>
<g clip-path="url(#clip1_169_571)">
<path d="M80.6333 14.3191C80.6333 14.4092 80.6386 14.4994 80.6492 14.5842L84.5458 12.9248C84.1482 12.4476 83.5545 12.1454 82.8865 12.1348C81.6618 12.1136 80.6545 13.0944 80.6333 14.3191Z" fill="#080A0C" fill-opacity="0.8"/>
<path fill-rule="evenodd" clip-rule="evenodd" d="M60.5 3.375C60.5 1.51104 62.011 0 63.875 0H97.625C99.489 0 101 1.51104 101 3.375V23.625C101 25.489 99.489 27 97.625 27H63.875C62.011 27 60.5 25.489 60.5 23.625V3.375ZM68.9008 10.0513C69.2613 9.92936 69.6483 9.86574 70.0513 9.86574C71.8114 9.86574 73.2799 11.1169 73.6139 12.7763L76.1057 12.2674C75.5331 9.44692 73.0414 7.32096 70.0513 7.32096C69.3674 7.32096 68.71 7.4323 68.095 7.63906L68.9008 10.0513ZM67.6445 16.2224L65.9585 18.131C64.6808 16.9964 63.875 15.3423 63.875 13.5027C63.875 11.6577 64.6808 10.0089 65.9585 8.87435L67.6445 10.7776C66.8916 11.4403 66.4198 12.4158 66.4198 13.4974C66.4198 14.5842 66.8916 15.5544 67.6445 16.2224ZM73.6141 14.229C73.2748 15.8884 71.8115 17.1343 70.0514 17.1343C69.6485 17.1343 69.2614 17.0707 68.8956 16.9488L68.0898 19.361C68.7048 19.5677 69.3675 19.6791 70.0514 19.6791C73.0415 19.6791 75.5333 17.5584 76.1058 14.738L73.6141 14.229ZM82.8228 16.5723C83.4378 16.5829 83.9945 16.3391 84.408 15.9361L85.4949 17.0495C84.8002 17.7228 83.846 18.1363 82.8016 18.1204C82.0805 18.1098 81.4178 17.8977 80.8506 17.5426L81.6776 16.2277C82.0065 16.4398 82.3987 16.567 82.8228 16.5723ZM79.0852 14.2873C79.117 12.2091 80.8347 10.5444 82.913 10.5762C84.6784 10.608 86.1417 11.8433 86.5233 13.4814L79.6948 16.4027C79.2972 15.7983 79.0746 15.0667 79.0852 14.2873ZM88.6705 16.1588V8.87963H87.2232V16.18C87.2232 16.5722 87.3292 16.8692 87.4671 17.0812C87.6102 17.2933 87.8011 17.4789 88.0821 17.6008L89.3332 18.1204L89.9324 16.6836L88.6705 16.1588ZM93.9298 12.1348C93.6806 12.1348 93.4474 12.1719 93.2247 12.2462L92.737 10.7723C93.1081 10.6504 93.511 10.5814 93.9298 10.5814C95.7536 10.5814 97.2751 11.875 97.625 13.5981L96.1035 13.9109C95.8967 12.8983 95.006 12.1348 93.9298 12.1348ZM92.4559 16.0103L91.4274 17.1714C90.6481 16.4822 90.155 15.4749 90.155 14.3509C90.155 13.227 90.6481 12.2143 91.4274 11.5251L92.4559 12.6862C91.9999 13.0891 91.7084 13.6829 91.7084 14.3456C91.7084 15.0083 91.9947 15.6021 92.4559 16.0103ZM93.9298 16.5722C95.0007 16.5722 95.8967 15.8089 96.1035 14.7962L97.625 15.109C97.2752 16.8321 95.7536 18.1257 93.9298 18.1257C93.511 18.1257 93.1081 18.0567 92.7317 17.9295L93.2247 16.4557C93.4474 16.5298 93.686 16.5722 93.9298 16.5722Z" fill="#080A0C" fill-opacity="0.8"/>
</g>
<g clip-path="url(#clip2_169_571)">
<path fill-rule="evenodd" clip-rule="evenodd" d="M124.375 0C122.511 0 121 1.51104 121 3.375V23.625C121 25.489 122.511 27 124.375 27H158.125C159.989 27 161.5 25.489 161.5 23.625V3.375C161.5 1.51104 159.989 0 158.125 0H124.375ZM147.698 23.6035C153.232 23.5845 157.633 19.026 157.54 13.4105C157.447 7.82316 152.894 3.26706 147.361 3.28601C145.025 3.29401 142.897 4.11969 141.224 5.48L141.276 5.52191L140.978 5.52293C139.265 4.18943 137.123 3.38861 134.802 3.39656C129.268 3.41551 124.867 7.97406 124.96 13.5896C125.053 19.2051 129.606 23.733 135.139 23.714C137.475 23.706 139.603 22.8804 141.276 21.5201L141.223 21.4782L141.522 21.4771C143.235 22.8106 145.377 23.6114 147.698 23.6035Z" fill="#080A0C" fill-opacity="0.8"/>
</g>
<g clip-path="url(#clip3_169_571)">
<path d="M214.325 15.2729L214.466 15.2655L214.608 15.2579L214.906 15.1634L215.009 15.0949C215.065 15.0572 215.14 15.0002 215.174 14.968C215.209 14.9359 215.263 14.8717 215.296 14.8253C215.328 14.779 215.377 14.6922 215.406 14.6324C215.434 14.5727 215.469 14.4799 215.484 14.4264C215.506 14.3473 215.527 14.268 215.549 14.1886C215.569 14.1114 215.608 13.9344 215.634 13.7954C215.661 13.6564 215.707 13.4078 215.738 13.243C215.768 13.0782 215.81 12.8422 215.832 12.7186C215.853 12.5951 215.876 12.4708 215.881 12.4425L215.892 12.3911L215.839 12.3705C215.81 12.3592 215.706 12.3277 215.608 12.3006L215.43 12.2512L214.812 12.2514L214.517 12.3533L214.434 12.4049C214.387 12.4332 214.31 12.495 214.261 12.542C214.212 12.5891 214.138 12.6734 214.097 12.7293C214.055 12.7853 213.995 12.8815 213.963 12.9434C213.922 13.0221 213.884 13.1019 213.848 13.1826C213.817 13.2524 213.791 13.3198 213.791 13.3324C213.791 13.345 213.77 13.4228 213.744 13.5052L213.697 13.655L213.636 14.0857L213.632 14.5725L213.658 14.6944L213.684 14.8161L213.798 15.0345L213.952 15.1603L214.043 15.1994C214.093 15.2209 214.177 15.2463 214.229 15.2557L214.325 15.2729Z" fill="#080A0C" fill-opacity="0.8"/>
<path d="M207.902 15.2742L208.201 15.2586L208.505 15.1625L208.574 15.1158C208.612 15.0901 208.65 15.0689 208.658 15.0689C208.666 15.0689 208.724 15.0189 208.785 14.9577L208.898 14.8464L208.966 14.7315C209.004 14.6683 209.035 14.6116 209.035 14.6053C209.035 14.5991 209.059 14.5302 209.09 14.4521C209.12 14.3742 209.167 14.2304 209.193 14.1326C209.219 14.0347 209.252 13.8885 209.265 13.8077L209.29 13.6607L209.231 13.6362H208.295L207.995 13.7075L207.754 13.8235L207.527 14.049L207.468 14.1714C207.435 14.2387 207.394 14.343 207.377 14.403L207.345 14.5122L207.361 14.8722L207.401 14.9493C207.423 14.9917 207.462 15.0511 207.487 15.0814L207.534 15.1364L207.618 15.1801C207.665 15.204 207.748 15.235 207.802 15.2488L207.902 15.2742Z" fill="#080A0C" fill-opacity="0.8"/>
<path d="M198.192 13.1505C198.192 13.1551 198.616 13.1588 199.134 13.1588H200.077L200.117 12.7936L200.082 12.5741L200.056 12.5247C200.041 12.4975 200.004 12.4474 199.972 12.4135L199.915 12.3516L199.706 12.2559L199.418 12.219L199.231 12.231C199.128 12.2375 199.01 12.2516 198.969 12.2622C198.928 12.2727 198.839 12.3076 198.772 12.3396L198.651 12.3978L198.403 12.6443L198.346 12.7564C198.316 12.8181 198.268 12.9301 198.241 13.0054C198.214 13.0807 198.192 13.146 198.192 13.1505Z" fill="#080A0C" fill-opacity="0.8"/>
<path d="M194.634 15.2733L194.737 15.2914L195.049 15.2727L195.367 15.1646L195.436 15.1134C195.481 15.0788 195.526 15.0429 195.57 15.0058C195.606 14.9749 195.667 14.906 195.705 14.853C195.743 14.7999 195.809 14.6899 195.852 14.6084L195.93 14.4603L195.994 14.2773C196.029 14.1768 196.079 13.9999 196.106 13.8842L196.154 13.6738L196.173 12.9622L196.142 12.8418C196.124 12.7756 196.091 12.6825 196.066 12.635L196.023 12.5485L195.86 12.3852L195.666 12.296L195.392 12.2375L195.055 12.2573L194.793 12.3385L194.692 12.3955C194.637 12.4268 194.543 12.4927 194.484 12.5418L194.377 12.6311L194.328 12.8903C194.301 13.0328 194.253 13.297 194.221 13.4772C194.187 13.6709 194.152 13.8644 194.116 14.0577L194.067 14.3105L194.048 14.6332L194.072 14.734C194.085 14.7895 194.115 14.877 194.138 14.9285L194.18 15.0221L194.252 15.0913L194.325 15.1606L194.532 15.2553L194.634 15.2733Z" fill="#080A0C" fill-opacity="0.8"/>
<path fill-rule="evenodd" clip-rule="evenodd" d="M184.875 0C183.011 0 181.5 1.51104 181.5 3.375V23.625C181.5 25.489 183.011 27 184.875 27H218.625C220.489 27 222 25.489 222 23.625V3.375C222 1.51104 220.489 0 218.625 0H184.875ZM192.848 11.1363L192.621 11.1354L192.464 11.0642L192.423 10.9845L192.383 10.9048L192.399 10.5839L192.487 10.3779L192.598 10.2586L192.789 10.1728H193.071L193.201 10.2536L193.239 10.3157L193.276 10.3779L193.273 10.6962L193.231 10.8043L193.189 10.9125L193.029 11.0748L192.848 11.1363ZM211.263 15.7055H210.446L210.571 15.0783C210.601 14.9238 210.651 14.6668 210.682 14.5071C210.712 14.3475 210.758 14.103 210.784 13.964C210.82 13.7677 210.855 13.5711 210.888 13.3742C210.926 13.1464 210.963 12.9186 211 12.6906C211.03 12.5001 211.073 12.2295 211.094 12.0892C211.115 11.9491 211.132 11.829 211.132 11.8224V11.8104H211.825L211.824 11.8526C211.824 11.8758 211.799 12.0169 211.77 12.1663C211.741 12.3156 211.719 12.4405 211.722 12.4438C211.725 12.4471 211.76 12.4007 211.8 12.3408L211.872 12.2318L212.14 11.951L212.346 11.8265L212.621 11.7299L212.958 11.729L213.052 11.7586C213.1 11.7735 213.147 11.7898 213.195 11.8073L213.244 11.8265L213.2 12.0385C213.176 12.1552 213.156 12.2774 213.155 12.3103L213.155 12.3701L213.139 12.3797L213.124 12.3893L212.939 12.3301L212.471 12.3268L212.364 12.379C212.304 12.4076 212.206 12.4687 212.145 12.5148L212.033 12.5986L211.83 12.8691L211.752 13.0323C211.71 13.1221 211.675 13.2062 211.675 13.2193C211.675 13.2323 211.661 13.281 211.645 13.3273C211.629 13.3737 211.59 13.5295 211.559 13.6738C211.529 13.818 211.492 14.0075 211.478 14.095C211.464 14.1827 211.432 14.3848 211.405 14.5445C211.379 14.7041 211.336 14.9744 211.31 15.1451L211.263 15.4553V15.7055ZM201.763 15.7055L200.963 15.7056V15.6891C200.963 15.6801 200.975 15.6149 200.99 15.5441C201.004 15.4732 201.042 15.2847 201.074 15.125C201.147 14.7508 201.219 14.3763 201.29 14.0014C201.326 13.8052 201.361 13.6085 201.393 13.4116C201.424 13.2262 201.47 12.9397 201.496 12.7749C201.522 12.6101 201.565 12.346 201.591 12.188C201.616 12.03 201.637 11.8804 201.637 11.8556V11.8104H202.352L202.342 11.8433C202.336 11.8612 202.314 11.9771 202.293 12.1008C202.271 12.2243 202.246 12.3591 202.237 12.4004L202.221 12.4752L202.248 12.4378C202.289 12.3815 202.33 12.3253 202.371 12.2693C202.424 12.1972 202.508 12.0979 202.559 12.0486C202.609 11.9994 202.695 11.93 202.751 11.8943C202.807 11.8587 202.897 11.8131 202.952 11.793C203.007 11.7729 203.106 11.7467 203.173 11.7349L203.295 11.7134L203.388 11.7249C203.44 11.7313 203.543 11.7551 203.618 11.7778C203.693 11.8005 203.754 11.8244 203.754 11.8309C203.754 11.8374 203.733 11.9462 203.707 12.0726C203.681 12.1991 203.66 12.3224 203.66 12.3467C203.66 12.3711 203.655 12.3909 203.649 12.3909C203.643 12.3909 203.59 12.3767 203.532 12.3593L203.426 12.3277L202.995 12.3254L202.714 12.46L202.485 12.6716L202.4 12.7982C202.353 12.8678 202.284 12.99 202.248 13.0699C202.211 13.1498 202.181 13.2267 202.181 13.2408C202.181 13.2549 202.168 13.302 202.153 13.3455C202.137 13.389 202.092 13.5901 202.052 13.7925C202.005 14.0332 201.961 14.2745 201.921 14.5164C201.89 14.7121 201.846 14.9836 201.825 15.1197C201.804 15.2558 201.782 15.4434 201.775 15.5363L201.763 15.7055ZM192.345 15.7055H191.54L191.551 15.6635C191.557 15.6403 191.579 15.5413 191.599 15.4435C191.619 15.3456 191.661 15.135 191.692 14.9753C191.723 14.8156 191.77 14.5712 191.796 14.4321L191.898 13.8891C191.934 13.6928 191.969 13.4962 192.001 13.2992C192.027 13.1345 192.074 12.8437 192.106 12.6531C192.137 12.4627 192.178 12.1972 192.196 12.0633L192.23 11.8198L193.045 11.8097L193.035 11.8262C193.029 11.8352 192.995 11.9933 192.958 12.1776C192.921 12.3619 192.87 12.6265 192.844 12.7655C192.818 12.9045 192.772 13.1447 192.742 13.2992C192.707 13.483 192.673 13.6672 192.642 13.8516C192.567 14.2894 192.495 14.7275 192.424 15.1658C192.393 15.3582 192.368 15.5451 192.368 15.5811C192.368 15.6169 192.363 15.6596 192.357 15.676L192.345 15.7055ZM187.36 15.7055L186.45 15.7055V15.6751C186.45 15.6584 186.472 15.5383 186.499 15.4083C186.525 15.2783 186.554 15.1297 186.563 15.0782C186.572 15.0267 186.6 14.8835 186.625 14.7599C186.661 14.5822 186.697 14.4042 186.73 14.2262L186.834 13.6831C186.868 13.499 186.902 13.3149 186.936 13.1306C186.976 12.9062 187.014 12.6815 187.05 12.4564L187.153 11.8104C187.178 11.6508 187.225 11.36 187.256 11.1643C187.288 10.9686 187.322 10.7538 187.332 10.6868C187.342 10.6199 187.364 10.4914 187.38 10.4013L187.409 10.2374H188.327L188.316 10.2671C188.309 10.2834 188.287 10.3929 188.267 10.5105C188.246 10.6281 188.216 10.7854 188.2 10.86C188.185 10.9347 188.164 11.0548 188.154 11.1269C188.143 11.199 188.114 11.3718 188.088 11.5107C188.061 11.6545 188.033 11.7981 188.004 11.9415C187.981 12.0534 187.96 12.1655 187.94 12.2779C187.925 12.365 187.915 12.4378 187.917 12.4396C187.919 12.4413 188.177 12.4489 188.489 12.4563L189.058 12.4698L190.416 12.4424L190.447 12.2341C190.475 12.0521 190.504 11.8703 190.535 11.6887C190.565 11.5033 190.611 11.2379 190.636 11.0988C190.661 10.9597 190.698 10.7491 190.718 10.6307C190.739 10.5122 190.761 10.3752 190.768 10.3264L190.781 10.2374H191.706L191.674 10.3731C191.657 10.4479 191.617 10.6522 191.585 10.8273C191.553 11.0023 191.505 11.2636 191.479 11.4078C191.453 11.552 191.406 11.809 191.375 11.9789C191.344 12.1489 191.293 12.4185 191.263 12.5782C191.228 12.7653 191.194 12.9525 191.162 13.14C191.136 13.2893 191.089 13.5674 191.058 13.758C191.026 13.9485 190.976 14.2477 190.945 14.4228C190.915 14.5979 190.874 14.8423 190.853 14.9658C190.832 15.0893 190.806 15.2538 190.795 15.3311C190.784 15.4083 190.766 15.5242 190.755 15.5886L190.735 15.7055H189.821L189.821 15.6822C189.821 15.6692 189.851 15.4944 189.887 15.2936C189.923 15.0927 189.973 14.8231 189.998 14.6944C190.033 14.5103 190.068 14.3262 190.102 14.142L190.216 13.5239C190.246 13.3591 190.281 13.1757 190.292 13.1162L190.313 13.0081L190.3 12.9945L190.286 12.9809H187.839L187.829 12.9914C187.823 12.9972 187.798 13.1151 187.773 13.2536C187.748 13.392 187.706 13.6317 187.68 13.7861C187.653 13.9406 187.606 14.2228 187.574 14.4134L187.471 15.0314C187.446 15.1807 187.411 15.3935 187.393 15.5043L187.36 15.7055ZM214.325 15.7989L214.147 15.7966C214.049 15.7955 213.917 15.7877 213.853 15.7794C213.789 15.7711 213.684 15.7497 213.619 15.7319C213.554 15.7142 213.45 15.6744 213.388 15.6439L213.276 15.5881L213.194 15.5206L213.111 15.4532L212.967 15.258L212.928 15.1587C212.906 15.1042 212.877 15.0216 212.863 14.9753L212.838 14.891L212.796 14.4228L212.852 13.841L212.909 13.6169C212.941 13.4936 212.989 13.3338 213.016 13.2617C213.044 13.1896 213.112 13.0353 213.168 12.9188L213.269 12.707L213.356 12.583C213.404 12.5148 213.494 12.4044 213.556 12.3376L213.669 12.2162L213.931 12.0222L214.287 11.8486L214.662 11.754L215.074 11.7156L215.561 11.7535L215.739 11.7981C215.836 11.8227 215.931 11.8489 215.948 11.8563L215.98 11.8697L215.99 11.8073C216.011 11.6741 216.033 11.5409 216.056 11.4078C216.094 11.1769 216.131 10.946 216.168 10.7149C216.199 10.5192 216.23 10.3064 216.236 10.2421L216.248 10.125H217.049V10.1391C217.05 10.1468 217.029 10.2501 217.004 10.3684C216.969 10.5399 216.935 10.7116 216.901 10.8835C216.87 11.0482 216.822 11.3011 216.795 11.4452L216.693 11.9977C216.663 12.1573 216.614 12.427 216.583 12.597C216.552 12.7668 216.505 13.0281 216.48 13.1775C216.454 13.3268 216.415 13.5501 216.393 13.6737C216.371 13.7973 216.333 14.0331 216.308 14.198C216.283 14.3629 216.237 14.7125 216.207 14.9752L216.151 15.4528V15.7055H215.416L215.428 15.5792C215.435 15.5097 215.448 15.4106 215.457 15.3592C215.468 15.297 215.476 15.2345 215.483 15.1718L215.493 15.0782L215.482 15.1063C215.476 15.1218 215.425 15.1954 215.369 15.2702L215.267 15.4059L215.074 15.5761L214.961 15.6336C214.9 15.6653 214.807 15.7031 214.756 15.7177C214.704 15.7323 214.586 15.7566 214.493 15.7715L214.325 15.7989ZM208.07 15.7827L207.564 15.7972L207.454 15.7798C207.393 15.7702 207.286 15.746 207.216 15.726L207.087 15.6899L206.863 15.5538L206.8 15.4801C206.766 15.4396 206.715 15.3645 206.687 15.3133L206.636 15.2201L206.581 14.9344V14.5912L206.638 14.2642L206.701 14.1188C206.735 14.0387 206.792 13.9311 206.826 13.8797C206.861 13.8282 206.94 13.7355 207.002 13.6737L207.115 13.5612L207.258 13.4724C207.337 13.4234 207.409 13.3835 207.418 13.3835C207.428 13.3835 207.471 13.3665 207.513 13.3458C207.556 13.3251 207.691 13.2809 207.812 13.2477L208.032 13.1872L209.38 13.1824L209.445 12.8685L209.446 12.5824L209.325 12.401L209.107 12.2937L208.782 12.2366L208.276 12.2575L207.995 12.3053C207.841 12.3317 207.635 12.3744 207.538 12.4005C207.441 12.4265 207.359 12.4452 207.356 12.4418C207.353 12.4385 207.374 12.3435 207.404 12.2308C207.433 12.118 207.467 11.9773 207.479 11.9181L207.501 11.8104L207.808 11.8092L208.033 11.782C208.156 11.7669 208.398 11.746 208.569 11.7354L208.881 11.7161L209.366 11.7529L209.718 11.8312L209.954 11.9508L210.098 12.0889L210.204 12.3057L210.201 12.7748L210.15 13.0463C210.123 13.1957 210.076 13.4527 210.046 13.6175C210.017 13.7824 209.971 14.0436 209.945 14.198C209.918 14.3525 209.875 14.6348 209.848 14.8253L209.799 15.1718L209.778 15.7054H209.091L209.091 15.5884C209.091 15.5241 209.103 15.3873 209.118 15.2844C209.132 15.1816 209.142 15.0951 209.139 15.092C209.136 15.089 209.1 15.131 209.059 15.1854C209.018 15.2397 208.943 15.3251 208.892 15.3753C208.842 15.4254 208.754 15.4973 208.697 15.535C208.641 15.5729 208.548 15.6259 208.491 15.6525L208.388 15.7011L208.07 15.7827ZM204.943 15.7992L204.737 15.7969C204.623 15.7956 204.482 15.7872 204.421 15.7784C204.361 15.7696 204.247 15.7445 204.168 15.7227L204.025 15.6828L203.916 15.6254L203.807 15.5677L203.704 15.4664L203.601 15.3649L203.537 15.2636L203.472 15.1624L203.36 14.8822L203.324 14.6099L203.324 14.1418L203.359 13.7859L203.407 13.5893C203.434 13.4812 203.486 13.3042 203.524 13.196L203.592 12.9995L203.681 12.8178C203.731 12.7179 203.807 12.5834 203.851 12.5189L203.931 12.4016L204.074 12.2604C204.153 12.1828 204.241 12.1024 204.271 12.0818C204.319 12.0486 204.369 12.0168 204.419 11.9862C204.471 11.9543 204.568 11.9064 204.635 11.8798L204.755 11.8316L205.13 11.7529L205.636 11.7141L205.994 11.7347C206.191 11.7461 206.422 11.7633 206.507 11.7729C206.592 11.7826 206.665 11.7942 206.67 11.7987C206.674 11.8032 206.665 11.8772 206.65 11.9632C206.635 12.049 206.611 12.1888 206.598 12.2738C206.585 12.3588 206.572 12.4283 206.569 12.4283C206.566 12.4283 206.519 12.4116 206.465 12.3913L206.366 12.3544L205.879 12.257L205.467 12.2363L205.327 12.2582C205.249 12.2702 205.132 12.2968 205.065 12.3173L204.944 12.3547L204.755 12.4716L204.577 12.6561L204.505 12.7809C204.465 12.8496 204.405 12.969 204.371 13.0462C204.337 13.1235 204.303 13.212 204.295 13.2429C204.287 13.2738 204.262 13.358 204.241 13.4301L204.202 13.5612L204.128 14.0482L204.128 14.45L204.189 14.7598L204.316 14.9913L204.507 15.1589L204.755 15.245L205.192 15.2599L205.706 15.1604L205.886 15.0935C205.985 15.0567 206.077 15.018 206.09 15.0075C206.103 14.9972 206.117 14.9919 206.121 14.996C206.125 15 206.119 15.0539 206.109 15.1157C206.099 15.1775 206.075 15.3072 206.056 15.4039C206.037 15.5006 206.015 15.5856 206.007 15.5928C205.998 15.5998 205.927 15.624 205.848 15.6463C205.752 15.6726 205.655 15.6956 205.558 15.7152C205.477 15.7309 205.306 15.7562 205.177 15.7714L204.943 15.7992ZM198.988 15.7992L198.782 15.7968C198.668 15.7956 198.517 15.787 198.446 15.7778C198.375 15.7686 198.247 15.7445 198.163 15.724L198.01 15.6868L197.899 15.6367C197.839 15.6092 197.747 15.5552 197.696 15.5169C197.644 15.4786 197.567 15.4105 197.525 15.3656C197.483 15.3207 197.426 15.2461 197.4 15.1999C197.373 15.1534 197.335 15.0692 197.314 15.0125C197.293 14.9559 197.263 14.8548 197.247 14.7878L197.219 14.6661L197.218 14.1088L197.248 13.9193C197.269 13.793 197.294 13.6673 197.322 13.5426C197.347 13.4395 197.388 13.292 197.415 13.2148C197.441 13.1376 197.48 13.0322 197.502 12.9807C197.524 12.9292 197.571 12.8281 197.608 12.756C197.644 12.6839 197.708 12.5744 197.75 12.5126C197.792 12.4507 197.868 12.358 197.92 12.3062C197.972 12.2545 198.052 12.1815 198.099 12.144C198.145 12.1064 198.237 12.0446 198.304 12.0067C198.371 11.9687 198.489 11.9123 198.567 11.8815L198.707 11.8254L199.156 11.7391L199.531 11.7147L199.934 11.7533L200.261 11.832L200.355 11.8818C200.406 11.9092 200.479 11.9529 200.515 11.9789C200.552 12.0048 200.608 12.0555 200.639 12.0914C200.67 12.1274 200.718 12.1949 200.744 12.2414L200.793 12.3261L200.853 12.5819L200.852 12.9245L200.824 13.1282C200.809 13.2402 200.783 13.3919 200.766 13.4653L200.734 13.5987L198.651 13.5853L198.087 13.6116L198.023 14.0294L198.023 14.4977L198.096 14.7507L198.211 14.9524L198.359 15.0862L198.449 15.1305C198.498 15.1549 198.589 15.191 198.651 15.2107L198.763 15.2466L199.418 15.2453L199.625 15.2054L199.831 15.1654L200.027 15.1007C200.135 15.0652 200.255 15.0208 200.294 15.0022L200.364 14.9685L200.374 14.9785L200.384 14.9886L200.338 15.2113C200.313 15.3338 200.287 15.472 200.281 15.5184L200.27 15.6028L200.041 15.6531C199.915 15.6808 199.719 15.7165 199.606 15.7325C199.492 15.7485 199.307 15.7701 199.194 15.7804L198.988 15.7992ZM193.573 17.4175L193.562 17.4471L192.757 17.447L192.767 17.4048C192.773 17.3818 192.802 17.2363 192.833 17.0819C192.871 16.8885 192.908 16.6951 192.945 16.5014C192.984 16.2955 193.022 16.0895 193.06 15.8834L193.265 14.7693C193.296 14.5993 193.347 14.3127 193.377 14.1326C193.447 13.7238 193.515 13.315 193.583 12.906C193.614 12.7206 193.666 12.3983 193.699 12.1897L193.76 11.8104H194.446L194.446 11.8338C194.445 11.8468 194.429 11.9313 194.41 12.0218L194.376 12.1863L194.425 12.154C194.452 12.1364 194.486 12.1105 194.5 12.0965C194.514 12.0825 194.569 12.0429 194.623 12.0085C194.677 11.974 194.778 11.9196 194.847 11.8877L194.973 11.8295L195.262 11.7556L195.617 11.7149L195.935 11.7382L196.253 11.8144L196.542 11.9638L196.787 12.2229L196.913 12.4752L196.992 12.8124L197.016 13.1494L196.995 13.348C196.983 13.4573 196.957 13.6342 196.936 13.7413L196.898 13.9359L196.826 14.1606C196.786 14.2842 196.717 14.4697 196.673 14.5726C196.63 14.6755 196.57 14.7951 196.541 14.8382C196.511 14.8813 196.488 14.9212 196.488 14.927C196.488 14.9327 196.448 14.9902 196.399 15.0546C196.35 15.1192 196.256 15.227 196.188 15.294L196.066 15.4163L195.935 15.5016C195.863 15.5485 195.753 15.6102 195.692 15.6383L195.579 15.6895L195.161 15.7979L194.774 15.8216L194.469 15.7822L194.214 15.6799L194.006 15.4706L193.959 15.3821C193.934 15.3335 193.908 15.2936 193.902 15.2936C193.896 15.2936 193.88 15.3673 193.868 15.4575C193.846 15.609 193.824 15.7604 193.8 15.9116L193.699 16.5484C193.669 16.7388 193.631 16.9807 193.614 17.0859C193.598 17.191 193.585 17.3019 193.585 17.3324C193.585 17.3629 193.58 17.4012 193.573 17.4175Z" fill="#080A0C" fill-opacity="0.8"/>
</g>
<path fill-rule="evenodd" clip-rule="evenodd" d="M250.363 13.5007C250.365 8.38066 254.452 4.23214 259.497 4.23056C264.543 4.23238 268.632 8.38054 268.632 13.5007C268.632 18.6199 264.543 22.768 259.497 22.7696C254.452 22.7677 250.364 18.6198 250.363 13.5007ZM257.44 7.99242C255.269 8.8402 253.729 10.9737 253.724 13.4756C253.728 15.9778 255.269 18.1103 257.44 18.9576V7.99242ZM261.584 7.99272V18.9603C263.757 18.113 265.3 15.9802 265.304 13.4763C265.3 10.9732 263.757 8.8385 261.584 7.99272Z" fill="#080A0C" fill-opacity="0.8"/>
<path fill-rule="evenodd" clip-rule="evenodd" d="M242 3.375C242 1.51104 243.492 0 245.333 0H278.667C280.508 0 282 1.51104 282 3.375V23.625C282 25.489 280.508 27 278.667 27H245.333C243.492 27 242 25.489 242 23.625V3.375ZM264.162 3.375C269.618 3.37318 274.597 7.54795 274.597 13.588C274.597 19.1112 269.618 23.6514 264.162 23.6249H259.467C253.947 23.6516 249.403 19.1126 249.403 13.588C249.403 7.54922 253.947 3.373 259.467 3.375H264.162Z" fill="#080A0C" fill-opacity="0.8"/>
<path fill-rule="evenodd" clip-rule="evenodd" d="M320.423 17.9671H321.826C322.809 17.9671 323.785 17.7186 323.785 16.5145C323.785 15.3142 322.782 15.0866 321.89 15.0866H318.296L316.866 16.5074L315.483 15.0866H310.96V19.4209H315.414L316.853 17.9862L318.238 19.4209H320.423V17.9671ZM320.399 15.9745H321.865C322.271 15.9745 322.553 16.127 322.553 16.506C322.553 16.881 322.284 17.0785 321.852 17.0785H320.399V15.9745ZM312.08 16.7626V15.9745H314.899L316.129 17.2377L314.845 18.5092H312.08V17.647H314.549V16.7626H312.08ZM319.299 15.5307V19.0056L317.573 17.2402L319.299 15.5307Z" fill="#080A0C" fill-opacity="0.8"/>
<path fill-rule="evenodd" clip-rule="evenodd" d="M328.76 18.5618C328.755 18.1797 328.732 17.9822 328.573 17.7706C328.477 17.6443 328.273 17.4919 328.023 17.4068C328.319 17.2983 328.819 16.9454 328.82 16.2537C328.82 15.7592 328.596 15.4887 328.241 15.2912C327.872 15.11 327.458 15.0867 326.888 15.0867H324.292V19.421H325.422V17.8381H326.624C327.034 17.8381 327.285 17.8751 327.449 18.0303C327.637 18.2117 327.634 18.5426 327.631 18.797C327.631 18.8253 327.631 18.8527 327.631 18.8788V19.421H328.76V18.5618ZM326.85 15.9746C327.05 15.9746 327.251 15.9786 327.386 16.0529C327.532 16.1231 327.619 16.2573 327.619 16.4427C327.619 16.6281 327.532 16.7776 327.386 16.8587C327.236 16.9409 327.05 16.9481 326.832 16.9481H325.465V15.9746H326.85Z" fill="#080A0C" fill-opacity="0.8"/>
<path d="M330.585 15.983H333.218V15.0866H329.465V19.4209H333.218V18.5216L330.585 18.5177V17.6553H333.154V16.771H330.585V15.983Z" fill="#080A0C" fill-opacity="0.8"/>
<path d="M333.918 19.4209H336.108C337.242 19.4209 337.874 18.9856 337.874 18.0532C337.874 17.6071 337.757 17.3436 337.538 17.1349C337.283 16.8974 336.864 16.7999 336.254 16.7864L335.648 16.7712C335.457 16.7712 335.329 16.7601 335.211 16.7221C335.069 16.674 334.965 16.5627 334.965 16.3992C334.965 16.2618 335.01 16.1577 335.134 16.0875C335.247 16.0162 335.38 16.009 335.584 16.009H337.647V15.0867H335.393C334.214 15.0867 333.785 15.7484 333.785 16.3771C333.785 17.6587 334.935 17.6876 335.944 17.713C336.014 17.7148 336.085 17.7166 336.154 17.7187C336.349 17.7187 336.468 17.7487 336.554 17.8147C336.631 17.8749 336.691 17.9752 336.691 18.1016C336.691 18.2196 336.636 18.3171 336.558 18.3841C336.464 18.4655 336.312 18.4914 336.099 18.4914H333.918V19.4209Z" fill="#080A0C" fill-opacity="0.8"/>
<path fill-rule="evenodd" clip-rule="evenodd" d="M305.333 0C303.492 0 302 1.51104 302 3.375V11.922H303.221L303.658 10.9555H305.999L306.431 11.922H308.718V8.52521L310.353 11.922H311.34L312.971 8.52822L312.975 11.922H314.128V7.58868H312.256L310.904 10.5283L309.432 7.58868H307.597V11.6914L305.684 7.58868H304.014L302 11.922L302 9.62351L303.362 6.75H306.294L306.672 7.46374V6.75H310.11L310.863 8.311L311.595 6.75H322.512C323.008 6.75 323.454 6.83519 323.781 7.1029V6.75H326.77V7.1029C327.284 6.84318 327.921 6.75 328.646 6.75H332.976L333.378 7.46374V6.75H336.583L337.021 7.46374V6.75H340.145V12.7934H336.988L336.392 11.8792V12.7935H332.453L332.025 11.831H331.055L330.617 12.7935H328.573C327.771 12.7935 327.162 12.6191 326.77 12.4256V12.7935H321.911V11.422C321.911 11.2284 321.874 11.2176 321.746 11.2135H321.565L321.569 12.7934H312.174V12.0466L311.837 12.7968H309.874L309.537 12.0578V12.7938H305.757L305.325 11.8313H304.355L303.921 12.7938H302V23.625C302 25.489 303.492 27 305.333 27H338.667C340.508 27 342 25.489 342 23.625V17.2079C341.995 17.2022 341.991 17.1966 341.986 17.191C341.96 17.1596 341.934 17.1286 341.896 17.1007C341.645 16.8632 341.235 16.7657 340.62 16.7516L340.01 16.7367C339.823 16.7367 339.696 16.7256 339.577 16.6876C339.431 16.6394 339.331 16.5281 339.331 16.3647C339.331 16.2272 339.377 16.1231 339.495 16.0528C339.61 15.9817 339.746 15.9745 339.95 15.9745L342 15.9746V3.375C342 1.51104 340.508 0 338.667 0H305.333ZM304.08 10.0559L304.846 8.32845L305.615 10.0559H304.08ZM338.3 19.3953H340.472C341.192 19.3953 341.725 19.209 341.998 18.8411V19.9678C341.547 20.1682 340.955 20.2465 340.349 20.2465H337.435V19.8593C337.097 20.1091 336.488 20.2465 335.905 20.2465H326.719V18.8489C326.719 18.6776 326.7 18.6704 326.514 18.6704H326.368V20.2468H323.345V18.6147C322.838 18.8162 322.265 18.8344 321.778 18.8272H321.418V20.25L317.752 20.247L316.851 19.3066L315.894 20.247H309.947V14.1987H316.008L316.878 15.1243L317.806 14.1987H321.864C322.333 14.1987 323.103 14.244 323.449 14.5527V14.1987H327.075C327.415 14.1987 328.154 14.262 328.591 14.5527V14.1987H334.088V14.5527C334.361 14.311 334.939 14.1987 335.431 14.1987H338.509V14.5527C338.832 14.3372 339.289 14.1987 339.917 14.1987H341.998V15.0611H339.758C338.578 15.0611 338.144 15.7228 338.144 16.3514C338.144 17.6333 339.295 17.662 340.308 17.6873C340.378 17.6891 340.448 17.6908 340.517 17.693C340.713 17.693 340.832 17.7231 340.914 17.7892C340.997 17.8492 341.051 17.9495 341.051 18.0758C341.052 18.1832 341.004 18.2858 340.918 18.3584C340.828 18.4399 340.678 18.4658 340.463 18.4658H338.3V19.3953Z" fill="#080A0C" fill-opacity="0.8"/>
<path fill-rule="evenodd" clip-rule="evenodd" d="M328.686 7.58843C327.911 7.58843 327.342 7.74792 326.978 8.09377C326.495 8.55805 326.372 9.14553 326.372 9.78828C326.372 10.5762 326.578 11.0746 326.973 11.4425C327.365 11.8105 328.057 11.9218 328.603 11.9218H329.919L330.344 10.9553H332.68L333.117 11.9218H335.407V8.66947L337.539 11.9218H339.132V7.58863H337.98V10.6065L336.004 7.58863H334.292V11.6872L332.388 7.58858H330.703L329.118 10.9963H328.613C328.317 10.9963 328.003 10.9443 327.829 10.7728C327.621 10.5542 327.52 10.2195 327.52 9.7552C327.52 9.30103 327.652 8.95611 327.844 8.7737C328.067 8.57314 328.299 8.51693 328.709 8.51693H329.775V7.58843H328.686ZM330.745 10.0559L331.519 8.32845L332.297 10.0559H330.745Z" fill="#080A0C" fill-opacity="0.8"/>
<path d="M325.813 7.58848H324.665V11.9218H325.813V7.58848Z" fill="#080A0C" fill-opacity="0.8"/>
<path fill-rule="evenodd" clip-rule="evenodd" d="M322.079 7.58848H319.492L319.493 11.9218H320.617V10.3456H321.824C322.229 10.3456 322.48 10.3788 322.644 10.5312C322.828 10.7184 322.824 11.0402 322.822 11.2928C322.822 11.3213 322.821 11.3489 322.821 11.3753L322.826 11.9218H323.96V11.0705C323.96 10.6835 323.932 10.491 323.774 10.2754C323.673 10.1492 323.463 9.99683 323.217 9.91055C323.509 9.80332 324.009 9.44642 324.009 8.75545C324.009 8.2722 323.796 7.9896 323.44 7.79604C323.077 7.60253 322.653 7.58848 322.079 7.58848ZM322.82 8.98698C322.82 9.17634 322.734 9.32884 322.588 9.39894C322.433 9.48537 322.251 9.48833 322.032 9.48828H320.666V8.52576H322.05C322.246 8.52576 322.451 8.53384 322.584 8.60385C322.73 8.66701 322.82 8.8014 322.82 8.98698Z" fill="#080A0C" fill-opacity="0.8"/>
<path d="M318.716 7.58848H314.959V11.9218H318.716V11.0256H316.084V10.1602H318.653V9.27194H316.084V8.49085H318.716V7.58848Z" fill="#080A0C" fill-opacity="0.8"/>
<defs>
<clipPath id="clip0_169_571">
<rect width="40.5" height="27" fill="white"/>
</clipPath>
<clipPath id="clip1_169_571">
<rect width="40.5" height="27" fill="white" transform="translate(60.5)"/>
</clipPath>
<clipPath id="clip2_169_571">
<rect width="40.5" height="27" fill="white" transform="translate(121)"/>
</clipPath>
<clipPath id="clip3_169_571">
<rect width="40.5" height="27" fill="white" transform="translate(181.5)"/>
</clipPath>
</defs>
</svg>
