<svg width="24" height="24" viewBox="0 0 24 24" fill="none" xmlns="http://www.w3.org/2000/svg">
<path d="M12 22C12 22 20 18 20 12V5L12 2L4 5V12C4 18 12 22 12 22Z" stroke="#0B0D11" stroke-width="1.6" stroke-linecap="round" stroke-linejoin="round"/>
<path d="M14.3333 11.1499H9.66667C9.29848 11.1499 9 11.4633 9 11.8499V14.2999C9 14.6865 9.29848 14.9999 9.66667 14.9999H14.3333C14.7015 14.9999 15 14.6865 15 14.2999V11.8499C15 11.4633 14.7015 11.1499 14.3333 11.1499Z" stroke="#0B0D11" stroke-width="1.6" stroke-linecap="round" stroke-linejoin="round"/>
<path d="M10.3334 11.15V9.75C10.3334 9.28587 10.509 8.84075 10.8216 8.51256C11.1342 8.18437 11.5581 8 12.0001 8C12.4421 8 12.8661 8.18437 13.1786 8.51256C13.4912 8.84075 13.6668 9.28587 13.6668 9.75V11.15" stroke="#0B0D11" stroke-width="1.6" stroke-linecap="round" stroke-linejoin="round"/>
</svg>
